<svg width="710" height="868" viewBox="0 0 710 868" fill="none" xmlns="http://www.w3.org/2000/svg">
<path d="M385.3 808.2H393.3V848.5H385.3V864.6H417.5V848.5H409.5V808.2H417.5V792H385.3V808.2Z" fill="black"/>
<path d="M146.2 808.2H167.4V864.6H183.6V808.2H204.7V792H146.2V808.2Z" fill="black"/>
<path d="M96.8 808.2H104.9V848.5H96.8V864.6H129.1V848.5H121V808.2H129.1V792H96.8V808.2Z" fill="black"/>
<path d="M36.3 824.3L18.2 792H0V864.6H16.1V821.3L36.3 857.6L56.5 821.3V864.6H72.6V792H54.5L36.3 824.3Z" fill="black"/>
<path d="M250.1 821.3C239 818.3 233 817.3 233 812.2C233 808.2 236 805.1 244.1 805.1C250.2 805.1 257.2 808.1 262.3 812.2L271.4 800.1C264.3 795.1 254.3 791 244.2 791C227.1 791 216 802.1 216 813.2C216 828.3 231.1 834.4 244.2 836.4C252.3 837.4 259.3 840.4 259.3 845.5C259.3 849.5 255.3 851.6 247.2 851.6C239.1 851.6 230.1 847.6 223 841.5L211.9 853.6C223 862.7 234.1 866.7 246.2 866.7C272.4 866.7 276.5 850.6 276.5 845.5C277.3 830.3 265.2 824.3 250.1 821.3Z" fill="black"/>
<path d="M343.9 834.4C343.9 843.5 336.8 850.5 327.8 850.5C318.8 850.5 311.7 843.4 311.7 834.4V791H295.6V834.4C295.6 852.6 309.7 866.7 327.9 866.7C346.1 866.7 360.2 852.6 360.2 834.4V791H344.1V834.4H343.9Z" fill="black"/>
<path d="M503.3 824.3L490.2 837.4L467 814.2C466 813.2 465 812.2 465 810.2C465 809.2 465 807.2 467 806.2C468 805.2 469 804.2 471 804.2C472 804.2 474 804.2 475 806.2C476 807.2 477 808.2 477 810.2V813.2H489.1V810.2C489.1 805.2 487.1 800.1 484.1 797.1C481.1 794.1 476 792.1 471 792.1C466 792.1 460.9 794.1 457.9 797.1C454.9 800.1 452.9 805.2 452.9 810.2C452.9 815.2 454.9 820.3 457.9 823.3L458.9 824.3L454.9 828.3C450.9 832.3 448.8 837.4 448.8 843.4C448.8 849.4 450.8 854.5 454.9 858.5C458.9 862.5 464 864.6 470 864.6C476 864.6 481.1 862.6 485.1 858.5L489.1 854.5L502.2 867.6L511.3 858.5L498.2 845.4L511.3 832.3L503.3 824.3ZM478 850.5C477 851.5 474 853.5 471.9 853.5C469.9 853.5 466.9 852.5 465.8 850.5C464.8 849.5 462.8 846.5 462.8 844.4C462.8 842.4 463.8 839.4 465.8 838.3L469.8 834.3L482.9 847.4L478 850.5Z" fill="black"/>
<path d="M710 848.5H693.9V864.6H710V848.5Z" fill="black"/>
<path d="M647.5 790C626.3 790 609.2 807.1 609.2 828.3C609.2 849.5 626.3 866.6 647.5 866.6C668.7 866.6 685.8 849.5 685.8 828.3C685.8 807.2 668.7 790 647.5 790ZM647.5 850.5C635.4 850.5 625.3 840.4 625.3 828.3C625.3 816.2 635.4 806.1 647.5 806.1C659.6 806.1 669.7 816.2 669.7 828.3C669.7 841.4 659.6 850.5 647.5 850.5Z" fill="black"/>
<path d="M573.8 806.1C579.9 806.1 584.9 808.1 587.9 811.1L599 800C592 794 582.9 790 572.8 790C561.7 790 552.6 794 545.6 801.1C538.5 808.2 534.5 818.2 534.5 828.3C534.5 839.4 538.5 848.5 545.6 855.5C552.7 862.6 562.7 866.6 572.8 866.6C582.9 866.6 592 862.6 599 856.5L588 845.5C584 848.5 578.9 850.5 573.9 850.5C567.8 850.5 562.8 848.5 557.8 843.4C553.8 839.4 550.7 833.3 550.7 827.3C550.7 821.3 552.7 816.2 557.8 811.2C562.8 809.2 567.8 806.1 573.8 806.1Z" fill="black"/>
<path d="M444.7 319H241V370.4H444.7V319Z" fill="black"/>
<path d="M649.5 253.5L595 307.9L379.2 91.1L433.7 36.6L397.4 0.299988L342.9 54.8L288.4 0.299988L252.1 36.6L306.6 91.1L89.8 307.9L36.3 253.4L0 289.8L54.5 344.3L0 398.7L36.3 435L90.8 380.5L307.6 597.3L253.1 651.8L289.4 688.1L343.9 633.6L398.4 688.1L434.7 651.8L380.2 597.3L597 380.5L651.5 435L687.8 398.7L633.3 344.2L687.8 289.7L649.5 253.5ZM444.8 459.2L342.9 561.1L241 459.2L126 344.2L241 229.2L342.9 127.3L444.8 229.2L559.8 344.2L444.8 459.2Z" fill="black"/>
<path d="M444.7 408.8H241V460.2H444.7V408.8Z" fill="black"/>
<path d="M444.8 279.7V229.3H241V279.7H444.8Z" fill="black"/>
</svg>
