<?xml version="1.0" encoding="UTF-8"?>
<svg id="Layer_1" data-name="Layer 1" xmlns="http://www.w3.org/2000/svg" viewBox="0 0 991.1 991.1">
  <defs>
    <style>
      .cls-1 {
        fill: #0e587c;
      }
    </style>
  </defs>
  <path class="cls-1" d="M991.1,495.55c0,273.68-221.86,495.55-495.55,495.55S0,769.23,0,495.55,221.86,0,495.55,0s495.55,221.86,495.55,495.55ZM657.46,129.4c3.24,2.55,7.13,1.87,9.43-1.33,11.63-12.89,24.6-23.94,38.21-35.49-131.59-68.73-289.04-68.33-419.95.47,14.52,11.88,27.65,23.73,39.54,36.9,3.19,1.74,5.54.94,8.33-.98,97.46-67.14,227.32-66.99,324.45.44ZM640.86,571.9c1.54-1.1-2.14-6.67-2.88-7.18-35.06-48.41-56.22-105.41-62.51-164.95-9.12-86.97,14.59-172.76,67.07-242.77-88.39-63.72-206.83-63.76-295.24,0,53.06,70.83,76.73,157.8,66.75,245.67-6.7,58.74-27.86,114.92-62.59,162.6-1.16,1.04-3.69,5.79-2.32,6.76,87.15,61.9,204.37,62.04,291.72-.12ZM213.7,313.51c11.01-61.19,41.43-116.26,86.61-158.33,1.8-3.23.83-6.17-1.56-8.64-12.98-13.44-26.78-25.74-42.41-37.01-60.97,38.04-111.83,89.27-149.51,151.16,30.83,24.36,64.8,43.24,101.36,57.02,2.27.85,4.53-1.61,5.5-4.19ZM782.09,317.54c37.01-13.97,70.94-33.04,101.75-57.59-38.07-62.07-88.69-112.88-149.8-150.86-16.01,11.62-30.2,24.1-43.38,37.94-2.22,2.33-2.77,5.32-1.11,8.17,44.78,41.71,75.02,96.26,86.25,156.46.09,2.94,2.56,7.29,6.28,5.89ZM377.44,324.49c.97-6.4.7-10.67.52-16.15-4.71-49.31-24.61-91.44-54.27-132.2-43.59,39.91-71.77,92.86-80.29,151.65,10.53,2.58,20.2,6.49,30.86,8.22,19.66,3.19,39.35,4.83,59.3,3.64,15.79-.95,30.15-8.01,43.88-15.16ZM656.26,339.66c19.48,1.23,38.57-.46,57.81-3.36,11.12-1.68,21.37-5.75,32.38-8.5-8.53-58.81-36.69-111.7-80.3-151.66-29.97,41.26-49.69,83.2-54.39,133.18.03,5.37-.42,9.71.82,15.27,13.56,7.06,27.86,14.07,43.67,15.07ZM246.92,629.04c19.3-14.69,36.6-30.66,52.61-48.51,1.69-1.89,1.39-6.21.58-8.16-55.9-52.13-88.8-124.23-90.72-200.69.02-6.04-.52-11.04-2.76-16.86-43.85-9.39-85.27-24.7-125.31-45.59-33.88,74.84-46.2,156.66-37.16,237.6,36.5,41,93.41,60.78,146.62,45.94,11.4-3.18,20.23-9.03,30.01-17.69,4.67,19.15,10.43,35.85,19.66,52.08,1.34,2.36,3.46,4.18,6.47,1.89ZM748.25,628.91c10.02-16.57,15.89-34.09,20.85-53.81,9.9,8.9,19.11,14.75,30.79,17.92,53.66,14.57,111.06-5.92,147.26-47.85,8.64-80.47-3.64-161.56-37.57-236.43-40.4,21.1-82.08,36.56-126.34,46.11l-2.67,9.39c.12,79.17-33.1,154.13-90.73,208.17-2.92,3.23.87,8.9,3.13,11.26,15.9,16.67,31.93,31.94,50.36,45.61,1.3.96,4,1.18,4.94-.37ZM350.56,378.84c-11.12-4.83-22.56-7.34-34.52-9.48-11.83-1.72-23.2-3-35.21-4.21l-39.93-4.04c-.85,70.85,27.8,137.64,78.22,186.28,2.08,2.01,3.8,3.26,6.72,1.57,21.21-29.22,37.44-61.38,47.18-96.29,2.95-10.57,2.49-21.56,1.38-32.25-1.49-14.4-10.15-35.63-23.84-41.57ZM616.78,452.35c9.69,35.27,25.99,67.14,46.98,96.31,2.43,1.89,4.39,1.13,6.39-.78,50.96-48.71,79.73-116.25,78.78-186.85-26.35,3.53-47.1,4.07-72.53,7.93-11.21,1.74-21.75,4.17-32.34,7.87-6.73,2.35-12.16,5.91-16.37,11.79-6.5,9.09-10.86,19.47-12.13,30.87-1.19,10.7-1.88,21.61,1.21,32.85ZM377.62,629.83c.5-3.3-.5-6.14-3.68-7.63-14.72-6.89-28.64-14.77-41.86-24.14-2.76-1.95-5.47-2.21-7.92.53-18.32,20.45-38.18,39.03-60.03,55.52-2.27,3-2.03,6.11.8,8.22,9.16,11.07,18.93,21.11,31.19,28.36,16.22,9.59,34.89,9.67,50.51-.83,20.77-13.98,27.41-36.49,30.99-60.03ZM724.93,662.36c2.76-2.13,3.1-5.18.84-8.21-21.85-16.49-41.71-35.06-60.06-55.52-2.18-2.44-4.86-2.74-7.47-.87-13.39,9.55-27.4,17.44-42.31,24.46-2.24,1.06-4.12,3.23-3.81,5.93,2.78,23.92,10.48,47.89,31.15,61.74,31.53,21.13,61.97-2.96,81.66-27.53ZM487.53,657.11c1.66-3.12,2.76-5.53,2.35-8.35-19.03.05-36.99-2.7-56.43-6.08,10.28,26.53,15.74,52.21,16.37,79.4.43,1.06,1.76,1.11,2.25.88.31-.14.5-.81.93-1.5,12.98-20.68,23.68-42.09,34.53-64.35ZM539.38,724.48c1.82-29.55,6.48-55.49,17.11-82.02-20.02,4.03-38.02,6.12-56.66,6.37-.14,3.62,1.37,5.8,2.52,8.63,11.62,22.36,21.51,45.17,37.03,67.01ZM366.7,800.88c-12.04-21.08-24.4-41.01-39.41-59.63-2.05-2.54-7.15-1.48-10.04-1.6-52.97-2.26-91.9-38.23-116.17-82.65-1.92-1.09-4.83-3.3-7.36-2.3-38.36,15.06-79.74,17.44-120.95,6.93,30.78,78.09,82.07,145.02,148.12,195.54,18.38,4.85,36.71,3.05,54.68-3.11,31.97-11.44,62.01-26.33,90.64-44.48,2.76-1.75,1.96-6.13.5-8.69ZM622.9,801.32c-2.48,4.34-.57,7.64,3,9.82,28.6,17.51,58.16,32.34,89.87,43.4,18.09,5.89,36.34,7.36,54.92,2.2,65.73-50.24,117.07-117.34,147.73-195.39-41.69,10.63-83.11,8.74-121.61-6.51-3.02-.56-5.78.19-8.05,2.08-24.24,44.49-63.18,80.42-116.12,82.71-2.94.13-7.98-.99-10.05,1.56-15.12,18.71-27.6,38.9-39.71,60.13ZM421.46,743.86c6.72-23.33,3.98-57.12-16.09-75.47-6.45,20.68-15.41,38.48-28.58,54.54-1.61,1.96-.92,6.16-.1,8.34l17.83,47.19c2.33,6.16,22.12-17.83,26.94-34.61ZM595.39,778.37l17.81-47.31c.81-2.14,1.47-6.18-.12-8.11-13.18-16.03-22.16-33.81-28.62-54.65-20.33,18.66-22.84,52.61-15.8,76.37,4.69,15.83,24.31,40.13,26.73,33.7ZM555.22,945.85c4.02-40.22,11.97-77.68,23.48-115.24-18.31-17.08-33.75-35.8-47.15-56.79-15.21-23.38-26.3-47.67-36.62-74.74-19.3,51.33-44.32,94.68-83.82,131.52,11.75,37.83,19.47,75.81,23.58,115.15,40.29,5.29,80.44,5.46,120.53.09ZM331.86,919.3c28.57,11.07,56.53,18.71,86.51,23.94-6.43-32.72-15.56-63.51-28.76-94.58l-33.78,24.26c-14.42,13.04-32.73,23.81-23.98,46.38ZM631.86,871.3l-31.66-22.64c-13.06,31.22-22.68,62.26-28.57,94.69,30.8-5.12,58.53-12.94,86.25-23.56,9.32-23.38-10.66-35.1-26.02-48.49Z"/>
</svg>